<svg xmlns="http://www.w3.org/2000/svg" viewBox="0 0 60 40">
  <rect width="60" height="40" fill="#DE2910"/>
  <g fill="#FFDE00">
    <polygon points="12,6 13.76,11.53 19.6,11.53 14.92,15.07 16.68,20.6 12,17.06 7.32,20.6 9.08,15.07 4.4,11.53 10.24,11.53"/>
    <polygon points="23.2,3 24.16,5.96 27.28,5.96 24.76,7.84 25.72,10.8 23.2,8.92 20.68,10.8 21.64,7.84 19.12,5.96 22.24,5.96"/>
    <polygon points="27.6,8 28.56,10.96 31.68,10.96 29.16,12.84 30.12,15.8 27.6,13.92 25.08,15.8 26.04,12.84 23.52,10.96 26.64,10.96"/>
    <polygon points="27.6,15 28.56,17.96 31.68,17.96 29.16,19.84 30.12,22.8 27.6,20.92 25.08,22.8 26.04,19.84 23.52,17.96 26.64,17.96"/>
    <polygon points="23.2,20 24.16,22.96 27.28,22.96 24.76,24.84 25.72,27.8 23.2,25.92 20.68,27.8 21.64,24.84 19.12,22.96 22.24,22.96"/>
  </g>
</svg>
